<?xml version="1.0" encoding="utf-8"?>
<!-- Generator: Adobe Illustrator 25.2.1, SVG Export Plug-In . SVG Version: 6.00 Build 0)  -->
<svg version="1.1" id="Camada_1" xmlns="http://www.w3.org/2000/svg" xmlns:xlink="http://www.w3.org/1999/xlink" x="0px" y="0px"
	 viewBox="0 0 257.67 254.78" style="enable-background:new 0 0 257.67 254.78;" xml:space="preserve">
<style type="text/css">
	.st0{fill:#9A1C12;}
	.st1{fill:#281573;}
</style>
<g id="sao_cristovao">
	<path class="st0" d="M157.09,248.98c-0.65-0.66-1.42-0.99-2.33-0.99c-0.92,0-1.7,0.33-2.34,0.98c-0.64,0.65-0.96,1.42-0.96,2.31
		c0,0.95,0.32,1.75,0.95,2.39c0.63,0.64,1.42,0.96,2.36,0.96c1.22,0,2.2-0.47,2.93-1.41l-0.97-0.73c-0.51,0.63-1.14,0.94-1.9,0.94
		c-0.49,0-0.94-0.15-1.36-0.45c-0.42-0.3-0.68-0.77-0.8-1.41h5.38C158.06,250.5,157.74,249.64,157.09,248.98z M152.8,250.5
		c0.39-0.86,1.04-1.29,1.96-1.29c0.83,0,1.47,0.43,1.9,1.29H152.8z"/>
	<path class="st0" d="M166.33,247.98c-0.41,0-0.77,0.1-1.08,0.31c-0.31,0.21-0.63,0.54-0.96,1c-0.19-0.46-0.42-0.79-0.69-1
		c-0.27-0.21-0.65-0.31-1.13-0.31c-0.37,0-0.69,0.09-0.97,0.27c-0.28,0.18-0.58,0.47-0.89,0.87v-0.97h-1.31v6.29h1.31v-3.55
		c0-0.49,0.14-0.91,0.42-1.24c0.28-0.34,0.62-0.5,1.02-0.5c0.68,0,1.02,0.41,1.02,1.23v4.06h1.33v-3.42c0-0.52,0.14-0.96,0.41-1.32
		c0.27-0.36,0.61-0.53,1-0.53c0.69,0,1.04,0.35,1.04,1.04v4.23h1.33v-4.57c0-0.51-0.18-0.96-0.55-1.33
		C167.26,248.17,166.83,247.98,166.33,247.98z"/>
	<path class="st0" d="M179.48,249.99c-0.22-0.28-0.51-0.53-0.86-0.77c-0.35-0.23-0.84-0.48-1.46-0.75
		c-0.63-0.27-1.07-0.52-1.33-0.74c-0.26-0.23-0.39-0.49-0.39-0.78c0-0.34,0.15-0.62,0.45-0.83c0.3-0.22,0.69-0.32,1.16-0.32
		c0.44,0,0.77,0.07,1,0.22c0.23,0.15,0.49,0.37,0.77,0.66l1.08-0.86c-0.36-0.47-0.82-0.82-1.36-1.04c-0.55-0.23-1.08-0.34-1.61-0.34
		c-0.8,0-1.48,0.25-2.04,0.74c-0.56,0.49-0.84,1.08-0.84,1.78c0,0.29,0.05,0.56,0.15,0.81c0.1,0.26,0.26,0.51,0.47,0.77
		c0.22,0.26,0.47,0.48,0.76,0.66c0.29,0.19,0.71,0.39,1.26,0.61c0.55,0.22,0.94,0.42,1.19,0.59c0.25,0.17,0.46,0.39,0.63,0.66
		c0.17,0.27,0.25,0.53,0.25,0.79c0,0.44-0.16,0.81-0.48,1.09c-0.32,0.29-0.73,0.44-1.21,0.44c-1,0-1.74-0.55-2.23-1.64l-1.33,0.37
		c0.34,0.89,0.82,1.56,1.44,2c0.62,0.44,1.34,0.67,2.16,0.67c0.84,0,1.55-0.28,2.14-0.85c0.59-0.57,0.88-1.26,0.88-2.06
		c0-0.35-0.05-0.67-0.17-0.98C179.87,250.57,179.7,250.27,179.48,249.99z"/>
	<path class="st0" d="M183.37,246.75c0-0.19,0.05-0.35,0.16-0.47c0.11-0.12,0.25-0.18,0.42-0.18c0.18,0,0.48,0.11,0.89,0.34
		c0.42,0.24,0.8,0.36,1.14,0.36c0.45,0,0.81-0.15,1.07-0.45c0.26-0.3,0.4-0.73,0.42-1.28h-1c-0.03,0.23-0.09,0.4-0.16,0.5
		c-0.08,0.1-0.21,0.15-0.39,0.15c-0.17,0-0.48-0.11-0.95-0.32c-0.47-0.21-0.82-0.32-1.06-0.32c-0.45,0-0.83,0.16-1.12,0.47
		c-0.3,0.31-0.44,0.7-0.44,1.17v0.1h1.02V246.75z"/>
	<path class="st0" d="M186.8,249.44c-0.24-0.43-0.59-0.78-1.03-1.05c-0.44-0.27-0.91-0.4-1.41-0.4c-0.8,0-1.5,0.33-2.09,0.99
		c-0.59,0.66-0.89,1.43-0.89,2.31c0,0.93,0.29,1.72,0.88,2.37c0.59,0.65,1.3,0.98,2.13,0.98c0.96,0,1.76-0.47,2.41-1.43v1.25h1.33
		v-6.29h-1.33V249.44z M186.36,252.8c-0.41,0.41-0.91,0.62-1.49,0.62c-0.58,0-1.08-0.21-1.49-0.63c-0.41-0.42-0.61-0.92-0.61-1.52
		c0-0.55,0.21-1.03,0.63-1.43c0.42-0.41,0.91-0.61,1.47-0.61c0.58,0,1.07,0.2,1.49,0.61c0.41,0.41,0.62,0.9,0.62,1.48
		C186.98,251.89,186.77,252.38,186.36,252.8z"/>
	<path class="st0" d="M192.96,247.98c-0.88,0-1.66,0.34-2.34,1c-0.68,0.67-1.02,1.43-1.02,2.29c0,0.9,0.34,1.68,1.03,2.35
		c0.69,0.66,1.5,1,2.43,1c0.87,0,1.64-0.34,2.31-1.01c0.67-0.67,1-1.45,1-2.34c0-0.88-0.34-1.65-1.02-2.31
		C194.66,248.31,193.87,247.98,192.96,247.98z M194.45,252.7c-0.41,0.41-0.89,0.61-1.44,0.61c-0.57,0-1.06-0.2-1.48-0.6
		c-0.42-0.4-0.63-0.86-0.63-1.39c0-0.56,0.21-1.03,0.62-1.43c0.42-0.4,0.91-0.6,1.49-0.6c0.56,0,1.04,0.2,1.45,0.59
		c0.41,0.4,0.61,0.86,0.61,1.39C195.07,251.82,194.87,252.3,194.45,252.7z"/>
	<path class="st0" d="M203,245.94c-1.05,1.01-1.58,2.22-1.58,3.63c0,1.44,0.54,2.67,1.61,3.69c1.07,1.02,2.36,1.53,3.87,1.53
		c1.03,0,1.98-0.23,2.87-0.7v-1.52c-0.97,0.54-1.89,0.82-2.75,0.82c-1.19,0-2.19-0.36-2.98-1.09c-0.79-0.72-1.19-1.63-1.19-2.71
		c0-1.06,0.39-1.96,1.16-2.69c0.77-0.73,1.73-1.09,2.86-1.09c0.88,0,1.85,0.26,2.9,0.77v-1.5c-1.02-0.43-2.01-0.64-2.96-0.64
		C205.32,244.43,204.05,244.93,203,245.94z"/>
	<path class="st0" d="M213.39,248.33c-0.28,0.23-0.57,0.6-0.87,1.13v-1.3h-1.3v6.29h1.33v-3.48c0-0.47,0.15-0.86,0.46-1.17
		c0.3-0.31,0.68-0.47,1.13-0.47c0.08,0,0.25,0.02,0.5,0.07l0.4-1.33c-0.24-0.06-0.42-0.09-0.55-0.09
		C214.04,247.98,213.68,248.1,213.39,248.33z"/>
	<path class="st0" d="M216.87,245.08c-0.28,0-0.52,0.1-0.73,0.3c-0.2,0.2-0.3,0.44-0.3,0.71c0,0.28,0.1,0.52,0.3,0.72
		c0.2,0.2,0.45,0.3,0.73,0.3c0.28,0,0.51-0.1,0.72-0.3c0.2-0.2,0.3-0.44,0.3-0.72c0-0.27-0.1-0.51-0.3-0.71
		C217.38,245.18,217.15,245.08,216.87,245.08z"/>
	<rect x="216.21" y="248.16" class="st0" width="1.32" height="6.29"/>
	<path class="st0" d="M221.29,250.61c-0.69-0.27-1.03-0.55-1.03-0.83c0-0.4,0.27-0.6,0.81-0.6c0.23,0,0.43,0.04,0.6,0.13
		c0.17,0.08,0.37,0.21,0.6,0.37l0.89-0.78c-0.74-0.62-1.41-0.92-2-0.92c-0.6,0-1.09,0.17-1.49,0.52c-0.4,0.35-0.59,0.78-0.59,1.31
		c0,0.42,0.14,0.78,0.42,1.06c0.28,0.29,0.78,0.57,1.5,0.85c0.72,0.28,1.09,0.6,1.09,0.95c0,0.2-0.1,0.37-0.31,0.52
		c-0.21,0.15-0.45,0.23-0.72,0.23c-0.4,0-0.78-0.18-1.15-0.53l-1.05,0.5c0.57,0.82,1.3,1.23,2.19,1.23c0.59,0,1.1-0.19,1.53-0.59
		c0.43-0.39,0.65-0.85,0.65-1.38c0-0.45-0.15-0.84-0.45-1.16C222.47,251.17,221.98,250.88,221.29,250.61z"/>
	<polygon class="st0" points="226.14,246.33 224.81,246.33 224.81,248.14 223.77,248.14 223.77,249.37 224.81,249.37 224.81,254.45 
		226.14,254.45 226.14,249.37 227.46,249.37 227.46,248.16 226.14,248.16 	"/>
	<polygon class="st0" points="233.4,244.88 231.6,244.88 230.58,247 231.71,247 	"/>
	<path class="st0" d="M231.47,247.98c-0.88,0-1.66,0.33-2.34,1c-0.68,0.67-1.02,1.43-1.02,2.29c0,0.9,0.34,1.68,1.03,2.35
		c0.68,0.66,1.5,1,2.43,1c0.87,0,1.64-0.34,2.31-1.01c0.66-0.67,1-1.45,1-2.34c0-0.88-0.34-1.65-1.02-2.31
		C233.17,248.31,232.38,247.98,231.47,247.98z M232.96,252.7c-0.41,0.41-0.89,0.61-1.44,0.61c-0.57,0-1.06-0.2-1.48-0.6
		c-0.42-0.4-0.63-0.86-0.63-1.39c0-0.55,0.21-1.03,0.62-1.43c0.42-0.4,0.91-0.6,1.49-0.6c0.56,0,1.04,0.2,1.45,0.59
		c0.41,0.39,0.61,0.86,0.61,1.39C233.58,251.82,233.37,252.3,232.96,252.7z"/>
	<polygon class="st0" points="238.66,251.8 236.86,248.16 235.46,248.16 238.64,254.69 241.82,248.16 240.42,248.16 	"/>
	<path class="st0" d="M244.69,246.75c0-0.19,0.05-0.35,0.16-0.47c0.11-0.12,0.25-0.18,0.42-0.18c0.18,0,0.48,0.11,0.89,0.34
		c0.42,0.24,0.8,0.36,1.14,0.36c0.45,0,0.81-0.15,1.07-0.45c0.26-0.3,0.4-0.73,0.42-1.28h-1c-0.03,0.23-0.09,0.4-0.16,0.5
		c-0.08,0.1-0.21,0.15-0.39,0.15c-0.17,0-0.48-0.11-0.95-0.32c-0.47-0.21-0.82-0.32-1.05-0.32c-0.45,0-0.83,0.16-1.12,0.47
		c-0.3,0.31-0.44,0.7-0.44,1.17v0.1h1.02V246.75z"/>
	<path class="st0" d="M248.11,249.44c-0.24-0.43-0.59-0.78-1.03-1.05c-0.44-0.27-0.91-0.4-1.41-0.4c-0.8,0-1.5,0.33-2.09,0.99
		c-0.59,0.66-0.89,1.43-0.89,2.31c0,0.93,0.29,1.72,0.88,2.37c0.59,0.65,1.3,0.98,2.13,0.98c0.96,0,1.76-0.47,2.41-1.43v1.25h1.33
		v-6.29h-1.33V249.44z M247.68,252.8c-0.41,0.41-0.91,0.62-1.49,0.62c-0.58,0-1.08-0.21-1.49-0.63c-0.41-0.42-0.61-0.92-0.61-1.52
		c0-0.55,0.21-1.03,0.63-1.43c0.42-0.41,0.91-0.61,1.47-0.61c0.58,0,1.07,0.2,1.49,0.61c0.41,0.41,0.62,0.9,0.62,1.48
		C248.3,251.89,248.09,252.38,247.68,252.8z"/>
	<path class="st0" d="M256.66,248.97c-0.68-0.66-1.47-0.99-2.38-0.99c-0.88,0-1.66,0.34-2.34,1c-0.68,0.67-1.02,1.43-1.02,2.29
		c0,0.9,0.34,1.68,1.03,2.35c0.69,0.66,1.5,1,2.43,1c0.87,0,1.64-0.34,2.31-1.01c0.67-0.67,1-1.45,1-2.34
		C257.67,250.4,257.34,249.63,256.66,248.97z M255.77,252.7c-0.41,0.41-0.89,0.61-1.44,0.61c-0.57,0-1.06-0.2-1.48-0.6
		c-0.42-0.4-0.63-0.86-0.63-1.39c0-0.56,0.21-1.03,0.63-1.43c0.41-0.4,0.91-0.6,1.49-0.6c0.56,0,1.04,0.2,1.45,0.59
		c0.41,0.4,0.61,0.86,0.61,1.39C256.39,251.82,256.18,252.3,255.77,252.7z"/>
</g>
<path id="y" class="st0" d="M137.43,251.56c-0.29-1.09-0.7-3.23,0.09-5.59c1.44-4.3,5.86-6.37,9.11-6.78
	c0.98-0.12,3.71-0.43,6.39,1.15c1.06,0.63,1.79,1.36,2.25,1.89c-1.18-0.16-2.91-0.27-4.96,0c-1.82,0.24-6.21,0.89-9.73,4.46
	C139.7,247.58,138.39,249.15,137.43,251.56"/>
<g id="wesleyana">
	<path class="st1" d="M128.41,211.29c-1.32-1.9-3.45-2.86-6.39-2.86c-2.8,0-5.02,0.88-6.65,2.64c-1.63,1.76-2.44,4.06-2.44,6.88
		c0,3.31,0.85,5.87,2.54,7.7c1.69,1.83,4.17,2.74,7.42,2.74c2.09,0,3.98-0.6,5.67-1.79l0.87-2.22l-0.48-0.36
		c-0.69,0.55-1.43,0.99-2.22,1.31c-0.79,0.32-1.6,0.48-2.42,0.48c-2.01,0-3.47-0.71-4.36-2.14c-0.77-1.19-1.15-2.94-1.15-5.24h11.35
		C130.15,215.33,129.57,212.95,128.41,211.29z M118.81,216.52c0-1.56,0.18-2.88,0.55-3.97c0.53-1.56,1.43-2.34,2.7-2.34
		c1.06,0,1.8,0.79,2.22,2.38c0.26,0.98,0.4,2.29,0.4,3.93H118.81z"/>
	<path class="st1" d="M145.31,222.04c0-2.12-0.81-3.73-2.42-4.84c-0.42-0.29-1.92-0.95-4.48-1.98c-1.61-0.66-2.42-1.48-2.42-2.46
		c0-0.77,0.29-1.34,0.87-1.73c0.58-0.38,1.27-0.58,2.06-0.58c0.9,0,1.71,0.33,2.44,0.99c0.73,0.66,1.17,1.44,1.33,2.34h1.11
		l0.95-3.49c-0.77-0.58-1.67-1.04-2.7-1.37c-1.03-0.33-2.05-0.5-3.06-0.5c-1.91,0-3.52,0.56-4.84,1.69
		c-1.32,1.12-1.98,2.67-1.98,4.62c0,1.96,0.81,3.5,2.42,4.64c0.32,0.21,1.79,0.9,4.4,2.06c1.56,0.69,2.34,1.52,2.34,2.5
		c0,0.69-0.32,1.26-0.97,1.73c-0.65,0.46-1.34,0.69-2.08,0.69c-1.06,0-1.98-0.3-2.78-0.91c-0.79-0.61-1.38-1.43-1.75-2.46h-0.99
		l-0.6,3.77c1.59,1.09,3.41,1.63,5.48,1.63c2.38,0,4.25-0.59,5.61-1.77C144.63,225.44,145.31,223.92,145.31,222.04z"/>
	<path class="st1" d="M151.46,227.83c0.24,0,0.82,0.04,1.75,0.12c0.21,0,0.54,0.03,0.99,0.08v-30.15c-0.29,0.03-0.68,0.07-1.15,0.12
		c-0.47,0.05-1.01,0.08-1.59,0.08c-0.24,0-0.64-0.02-1.21-0.06c-0.57-0.04-1.08-0.09-1.53-0.14v30.15c0.29-0.03,0.67-0.07,1.15-0.12
		C150.35,227.86,150.88,227.83,151.46,227.83z"/>
	<path class="st1" d="M167.88,228.39c2.09,0,3.98-0.6,5.67-1.79l0.87-2.22l-0.48-0.36c-0.69,0.55-1.43,0.99-2.22,1.31
		c-0.79,0.32-1.6,0.48-2.42,0.48c-2.01,0-3.47-0.71-4.36-2.14c-0.77-1.19-1.15-2.94-1.15-5.24h11.35c0-3.09-0.58-5.48-1.75-7.14
		c-1.32-1.9-3.45-2.86-6.39-2.86c-2.8,0-5.02,0.88-6.65,2.64c-1.63,1.76-2.44,4.06-2.44,6.88c0,3.31,0.85,5.87,2.54,7.7
		C162.16,227.47,164.63,228.39,167.88,228.39z M164.35,212.55c0.53-1.56,1.43-2.34,2.7-2.34c1.06,0,1.8,0.79,2.22,2.38
		c0.26,0.98,0.4,2.29,0.4,3.93h-5.87C163.8,214.96,163.98,213.64,164.35,212.55z"/>
	<polygon class="st1" points="108.9,199.35 97.9,221.18 97.9,199.35 90.09,199.35 79.1,221.18 79.1,199.35 72.67,199.35 
		72.67,233.25 80.48,233.25 91.65,211.68 91.65,233.25 99.28,233.25 116.35,199.35 	"/>
	<path class="st1" d="M209.92,224.54v-10.79c0-1.82-0.85-3.21-2.54-4.17c-1.35-0.77-3.01-1.15-5-1.15c-1.32,0-2.65,0.23-3.99,0.67
		c-1.34,0.45-2.45,1.09-3.35,1.91l0.52,2.46h0.28c0.16-0.48,0.68-0.98,1.55-1.51c1.06-0.64,2.16-0.95,3.29-0.95
		c0.95,0,1.82,0.35,2.6,1.05c0.78,0.7,1.17,1.52,1.17,2.44c0,0.35-0.05,0.63-0.14,0.87c-0.09,0.24-0.24,0.46-0.46,0.68
		c-0.37,0.24-0.85,0.45-1.43,0.63c-0.37,0.11-0.86,0.24-1.47,0.4c-2.72,0.66-4.56,1.35-5.52,2.06c-1.16,0.87-1.75,2.21-1.75,4.01
		c0,1.67,0.54,2.98,1.63,3.93c1,0.87,2.35,1.31,4.05,1.31c1.06,0,2.04-0.25,2.94-0.75c0.9-0.5,1.61-1.21,2.14-2.14
		c0.32,0.9,0.83,1.61,1.53,2.12c0.7,0.52,1.5,0.77,2.4,0.77c0.48,0,1.06-0.12,1.77-0.36c0.7-0.24,1.3-0.48,1.8-0.71v-0.91
		c-0.79,0-1.33-0.12-1.61-0.38C210.06,225.77,209.92,225.28,209.92,224.54z M204.45,221.48c0,1.22-0.2,2.2-0.6,2.94
		c-0.5,0.93-1.31,1.39-2.42,1.39c-0.79,0-1.35-0.3-1.69-0.91c-0.33-0.61-0.5-1.36-0.5-2.26c0-0.74,0.09-1.37,0.28-1.9
		c0.19-0.53,0.52-0.99,0.99-1.37c0.48-0.38,1.15-0.73,2.02-1.05c0.48-0.16,1.11-0.38,1.9-0.67V221.48z"/>
	<path class="st1" d="M225.71,208.43c-1.19,0-2.33,0.32-3.41,0.95c-0.93,0.56-1.83,1.34-2.7,2.34v-2.94
		c-0.29,0.03-0.65,0.06-1.09,0.12c-0.44,0.05-0.95,0.08-1.53,0.08c-0.27,0-0.67-0.02-1.21-0.06c-0.54-0.04-1.03-0.09-1.45-0.14
		v19.24c0.29-0.03,0.68-0.07,1.15-0.12c0.48-0.05,1-0.08,1.59-0.08c0.24,0,0.82,0.04,1.75,0.12c0.21,0,0.54,0.03,0.99,0.08v-9.12
		c0-2.01,0.14-3.52,0.44-4.52c0.5-1.75,1.51-2.62,3.02-2.62c1.3,0,2.19,0.61,2.7,1.82c0.37,0.9,0.55,2.42,0.55,4.56v9.88
		c0.29-0.03,0.68-0.07,1.15-0.12c0.48-0.05,1-0.08,1.59-0.08c0.24,0,0.82,0.04,1.75,0.12c0.21,0,0.54,0.03,0.99,0.08V216.4
		c0-2.62-0.42-4.55-1.27-5.79C229.73,209.16,228.07,208.43,225.71,208.43z"/>
	<path class="st1" d="M251.36,226.02c-0.28-0.25-0.42-0.75-0.42-1.49v-10.79c0-1.82-0.85-3.21-2.54-4.17
		c-1.35-0.77-3.01-1.15-5-1.15c-1.32,0-2.65,0.23-3.99,0.67c-1.34,0.45-2.45,1.09-3.35,1.91l0.52,2.46h0.28
		c0.16-0.48,0.68-0.98,1.55-1.51c1.06-0.64,2.16-0.95,3.29-0.95c0.95,0,1.82,0.35,2.6,1.05c0.78,0.7,1.17,1.52,1.17,2.44
		c0,0.35-0.05,0.63-0.14,0.87c-0.09,0.24-0.24,0.46-0.46,0.68c-0.37,0.24-0.85,0.45-1.43,0.63c-0.37,0.11-0.86,0.24-1.47,0.4
		c-2.72,0.66-4.56,1.35-5.52,2.06c-1.16,0.87-1.75,2.21-1.75,4.01c0,1.67,0.54,2.98,1.63,3.93c1,0.87,2.35,1.31,4.05,1.31
		c1.06,0,2.04-0.25,2.94-0.75c0.9-0.5,1.61-1.21,2.14-2.14c0.32,0.9,0.83,1.61,1.53,2.12c0.7,0.52,1.5,0.77,2.4,0.77
		c0.48,0,1.06-0.12,1.77-0.36c0.7-0.24,1.3-0.48,1.8-0.71v-0.91C252.18,226.4,251.64,226.28,251.36,226.02z M245.47,221.48
		c0,1.22-0.2,2.2-0.6,2.94c-0.5,0.93-1.31,1.39-2.42,1.39c-0.79,0-1.35-0.3-1.69-0.91c-0.33-0.61-0.5-1.36-0.5-2.26
		c0-0.74,0.09-1.37,0.28-1.9c0.19-0.53,0.52-0.99,0.99-1.37c0.48-0.38,1.15-0.73,2.02-1.05c0.48-0.16,1.11-0.38,1.9-0.67V221.48z"/>
	<path class="st1" d="M191.28,208.15l-4.71,8.93l-4.42-8.93h-6.7l7.99,14.86l-4.1,7.76c-0.67,0.84-1.81,2.05-3.55,2.95
		c-2.9,1.5-5.76,1.25-7.67,1.06c-0.33-0.03-0.59-0.07-0.84-0.12c-1.41-0.26-2.43-0.6-2.69-0.7c-1.83-0.65-5.84-1.6-6.98-1.83
		c-1.35-0.28-5.72-1.17-9.97,0.78c-3.94,1.81-5.93,5.21-6.73,6.85c0.92-0.63,2.46-1.54,4.51-1.98c7.36-1.6,11.33,4.94,21.09,4.87
		c4.15-0.03,6.55-1.23,7.75-1.98c1.55-0.97,2.51-2.02,3.52-3.16c2.6-2.89,3.89-5.67,4.32-6.47c4.1-7.63,8.2-15.26,12.3-22.89H191.28
		z"/>
</g>
<g id="linha">
	<rect x="33.11" y="193.81" class="st0" width="39.96" height="2.08"/>
	<rect x="118.11" y="193.83" class="st0" width="136.36" height="2.08"/>
</g>
<g id="metodista">
	<path class="st1" d="M97.19,173.8c-1.32-1.91-3.45-2.86-6.39-2.86c-2.8,0-5.02,0.88-6.65,2.64c-1.63,1.76-2.44,4.05-2.44,6.88
		c0,3.31,0.85,5.87,2.54,7.7c1.69,1.83,4.17,2.74,7.42,2.74c2.09,0,3.98-0.59,5.67-1.78l0.87-2.22l-0.48-0.36
		c-0.69,0.55-1.43,0.99-2.22,1.31c-0.79,0.32-1.6,0.48-2.42,0.48c-2.01,0-3.47-0.71-4.36-2.14c-0.77-1.19-1.15-2.94-1.15-5.24h11.35
		C98.93,177.84,98.35,175.46,97.19,173.8z M87.59,179.03c0-1.56,0.18-2.88,0.55-3.97c0.53-1.56,1.43-2.34,2.7-2.34
		c1.06,0,1.8,0.79,2.22,2.38c0.26,0.98,0.4,2.29,0.4,3.93H87.59z"/>
	<path class="st1" d="M108.87,187.9c-0.22-0.54-0.34-1.46-0.34-2.76v-11.31h3.29v-0.67v-0.6c0-0.11,0.01-0.28,0.02-0.54
		c0.01-0.25,0.03-0.5,0.06-0.73h-3.37v-6.9c-0.87,0.42-1.84,0.87-2.9,1.34c-1.06,0.47-1.92,0.84-2.58,1.1v4.46h-2.62v0.44v0.4v0.44
		v0.55c0,0.24-0.03,0.48-0.08,0.71h2.7v10.63c0,2.06,0.33,3.6,0.99,4.6c0.79,1.22,2.14,1.83,4.05,1.83c1.14,0,2.51-0.3,4.13-0.91
		v-1.55c-0.66,0.19-1.24,0.28-1.75,0.28C109.63,188.72,109.1,188.44,108.87,187.9z"/>
	<path class="st1" d="M123.49,170.94c-3.04,0-5.42,0.94-7.12,2.82c-1.71,1.88-2.56,4.4-2.56,7.58c0,2.94,0.87,5.26,2.62,6.98
		c1.75,1.72,4.09,2.58,7.02,2.58c3.04,0,5.46-0.99,7.26-2.98c1.69-1.88,2.54-4.36,2.54-7.46c0-2.96-0.87-5.29-2.62-6.98
		C128.89,171.79,126.51,170.94,123.49,170.94z M126.55,186.14c-0.66,1.98-1.69,2.98-3.09,2.98c-1.53,0-2.61-1.01-3.21-3.02
		c-0.37-1.19-0.56-2.82-0.56-4.88c0-2.62,0.28-4.63,0.83-6.03c0.66-1.64,1.73-2.46,3.21-2.46c1.27,0,2.22,0.7,2.86,2.1
		c0.53,1.19,0.79,2.86,0.79,5C127.38,182.39,127.1,184.5,126.55,186.14z"/>
	<path class="st1" d="M151.15,160.59c-0.24,0-0.64-0.02-1.21-0.06c-0.57-0.04-1.08-0.09-1.53-0.14v13.41
		c-0.55-1.01-1.28-1.73-2.18-2.18c-0.9-0.45-1.97-0.67-3.21-0.67c-2.49,0-4.42,1.03-5.79,3.09c-1.24,1.85-1.87,4.15-1.87,6.9
		c0,2.88,0.57,5.18,1.71,6.9c1.35,2.04,3.39,3.05,6.11,3.05c2.7,0,4.51-1.28,5.44-3.85v3.49c0.29-0.03,0.65-0.07,1.09-0.12
		c0.44-0.05,0.96-0.08,1.57-0.08c0.29,0,0.65,0.02,1.09,0.06c0.44,0.04,0.95,0.09,1.53,0.14v-30.15c-0.29,0.03-0.67,0.07-1.15,0.12
		C152.26,160.56,151.73,160.59,151.15,160.59z M147.97,185.42c-0.64,1.93-1.72,2.9-3.23,2.9c-1.41,0-2.41-0.93-2.99-2.78
		c-0.35-1.11-0.52-2.61-0.52-4.48c0-1.88,0.21-3.45,0.64-4.72c0.64-1.88,1.7-2.82,3.19-2.82c1.41,0,2.41,0.9,2.99,2.7
		c0.37,1.14,0.56,2.6,0.56,4.4C148.61,182.55,148.39,184.15,147.97,185.42z"/>
	<path class="st1" d="M161.26,171.5c-0.24,0-0.64-0.02-1.21-0.06c-0.57-0.04-1.08-0.09-1.53-0.14v19.24
		c0.29-0.03,0.67-0.07,1.15-0.12c0.48-0.05,1-0.08,1.59-0.08c0.24,0,0.82,0.04,1.75,0.12c0.21,0,0.54,0.03,0.99,0.08V171.3
		c-0.29,0.03-0.68,0.07-1.15,0.12C162.37,171.47,161.84,171.5,161.26,171.5z"/>
	<path class="st1" d="M161.22,160.9c-0.85,0-1.57,0.32-2.18,0.95c-0.61,0.63-0.91,1.36-0.91,2.18c0,0.85,0.3,1.58,0.89,2.2
		c0.59,0.62,1.33,0.93,2.2,0.93c0.87,0,1.62-0.31,2.24-0.93c0.62-0.62,0.93-1.36,0.93-2.2c0-0.87-0.32-1.61-0.95-2.22
		C162.81,161.21,162.07,160.9,161.22,160.9z"/>
	<path class="st1" d="M178.28,179.71c-0.42-0.29-1.92-0.95-4.48-1.98c-1.61-0.66-2.42-1.48-2.42-2.46c0-0.77,0.29-1.34,0.87-1.73
		c0.58-0.38,1.27-0.58,2.06-0.58c0.9,0,1.71,0.33,2.44,0.99c0.73,0.66,1.17,1.44,1.33,2.34h1.11l0.95-3.49
		c-0.77-0.58-1.67-1.04-2.7-1.37c-1.03-0.33-2.05-0.5-3.06-0.5c-1.9,0-3.52,0.56-4.84,1.69c-1.32,1.12-1.98,2.66-1.98,4.62
		c0,1.96,0.81,3.51,2.42,4.64c0.32,0.21,1.79,0.9,4.4,2.06c1.56,0.69,2.34,1.52,2.34,2.5c0,0.69-0.32,1.26-0.97,1.73
		c-0.65,0.46-1.34,0.69-2.08,0.69c-1.06,0-1.98-0.3-2.78-0.91c-0.79-0.61-1.38-1.43-1.75-2.46h-0.99l-0.6,3.77
		c1.59,1.08,3.41,1.63,5.48,1.63c2.38,0,4.25-0.59,5.61-1.77c1.36-1.18,2.04-2.7,2.04-4.58C180.7,182.43,179.9,180.82,178.28,179.71
		z"/>
	<path class="st1" d="M190.48,187.9c-0.22-0.54-0.34-1.46-0.34-2.76v-11.31h3.29v-0.67v-0.6c0-0.11,0.01-0.28,0.02-0.54
		c0.01-0.25,0.03-0.5,0.06-0.73h-3.37v-6.9c-0.87,0.42-1.84,0.87-2.9,1.34c-1.06,0.47-1.92,0.84-2.58,1.1v4.46h-2.62v0.44v0.4v0.44
		v0.55c0,0.24-0.03,0.48-0.08,0.71h2.7v10.63c0,2.06,0.33,3.6,0.99,4.6c0.79,1.22,2.14,1.83,4.05,1.83c1.14,0,2.51-0.3,4.13-0.91
		v-1.55c-0.66,0.19-1.24,0.28-1.75,0.28C191.24,188.72,190.71,188.44,190.48,187.9z"/>
	<path class="st1" d="M211.71,188.54c-0.28-0.25-0.42-0.75-0.42-1.49v-10.79c0-1.82-0.85-3.21-2.54-4.17
		c-1.35-0.77-3.01-1.15-5-1.15c-1.32,0-2.65,0.22-3.99,0.67c-1.34,0.45-2.45,1.08-3.35,1.91l0.52,2.46h0.28
		c0.16-0.48,0.68-0.98,1.55-1.51c1.06-0.63,2.16-0.95,3.29-0.95c0.95,0,1.82,0.35,2.6,1.05c0.78,0.7,1.17,1.51,1.17,2.44
		c0,0.35-0.05,0.64-0.14,0.87c-0.09,0.24-0.24,0.46-0.46,0.68c-0.37,0.24-0.85,0.45-1.43,0.63c-0.37,0.11-0.86,0.24-1.47,0.4
		c-2.72,0.66-4.56,1.35-5.52,2.06c-1.16,0.87-1.75,2.21-1.75,4.01c0,1.67,0.54,2.98,1.63,3.93c1,0.87,2.35,1.31,4.05,1.31
		c1.06,0,2.04-0.25,2.94-0.75c0.9-0.5,1.61-1.22,2.14-2.14c0.32,0.9,0.83,1.61,1.53,2.12c0.7,0.52,1.5,0.77,2.4,0.77
		c0.48,0,1.06-0.12,1.77-0.36c0.7-0.24,1.3-0.48,1.8-0.71v-0.91C212.52,188.91,211.99,188.79,211.71,188.54z M205.82,183.99
		c0,1.22-0.2,2.2-0.6,2.94c-0.5,0.93-1.31,1.39-2.42,1.39c-0.79,0-1.35-0.3-1.69-0.91c-0.33-0.61-0.5-1.36-0.5-2.26
		c0-0.74,0.09-1.38,0.28-1.91c0.19-0.53,0.52-0.98,0.99-1.37c0.48-0.38,1.15-0.73,2.02-1.05c0.48-0.16,1.11-0.38,1.9-0.68V183.99z"
		/>
	<polygon class="st1" points="60.33,178.01 60.33,156.44 52.7,156.44 35.64,190.34 43.09,190.34 54.08,168.52 54.08,190.34 
		61.89,190.34 72.89,168.52 72.89,190.34 79.32,190.34 79.32,156.44 71.51,156.44 	"/>
</g>
<g id="igreja">
	<rect x="89.81" y="147.82" class="st1" width="1.64" height="12.15"/>
	<path class="st1" d="M100.39,155.48h2.83c-0.54,2.1-1.85,3.16-3.94,3.16c-1.39,0-2.49-0.48-3.28-1.44
		c-0.79-0.96-1.19-2.04-1.19-3.24c0-1.37,0.41-2.52,1.23-3.43c0.82-0.91,1.84-1.37,3.07-1.37c1.4,0,2.64,0.61,3.71,1.82l1.06-1.21
		c-0.81-0.9-1.6-1.51-2.37-1.84c-0.77-0.33-1.62-0.49-2.56-0.49c-1.57,0-2.91,0.63-4.01,1.88c-1.1,1.25-1.66,2.77-1.66,4.56
		c0,1.7,0.54,3.2,1.62,4.52c1.08,1.32,2.52,1.98,4.34,1.98c0.8,0,1.48-0.1,2.06-0.3c0.57-0.2,1.11-0.54,1.61-1.01
		c0.5-0.47,0.91-1.01,1.21-1.6c0.3-0.6,0.5-1.14,0.6-1.64s0.14-1.16,0.14-1.99h-4.47V155.48z"/>
	<path class="st1" d="M113.28,153.45c0.53-0.62,0.8-1.34,0.8-2.15c0-1.02-0.41-1.85-1.24-2.5c-0.83-0.65-1.9-0.98-3.21-0.98H107
		v12.15h1.66v-5h0.37l3.38,5h1.91l-3.54-5.2C111.91,154.51,112.74,154.07,113.28,153.45z M108.66,153.52v-4.23
		c0.92,0,1.62,0.06,2.1,0.18c0.48,0.12,0.86,0.34,1.15,0.67c0.29,0.33,0.43,0.75,0.43,1.26
		C112.34,152.86,111.11,153.57,108.66,153.52z"/>
	<polygon class="st1" points="116.18,159.96 122.93,159.96 122.93,158.32 117.82,158.32 117.82,154.15 122.93,154.15 122.93,152.51 
		117.82,152.51 117.82,149.47 122.93,149.47 122.93,147.82 116.18,147.82 	"/>
	<path class="st1" d="M127.51,157c0,1.17-0.44,1.75-1.31,1.75c-0.34,0-0.78-0.09-1.31-0.28l-0.82,1.35
		c0.68,0.36,1.37,0.54,2.08,0.54c2.02,0,3.03-1.21,3.03-3.63v-8.91h-1.66V157z"/>
	<path class="st1" d="M136.54,147.35l-5.7,12.62h1.73l1.4-3.11h5.17l1.41,3.11h1.74L136.54,147.35z M134.59,155.47l1.95-4.33
		l1.97,4.33H134.59z"/>
</g>
<g id="fogo">
	<path class="st0" d="M64.29,74.7c-1.87-4.6-2.25-9.27-2.25-9.28c-0.14-1.72-0.28-3.44,0.13-5.66c0.29-1.59,1.22-6.6,5.32-9.19
		c0.92-0.58,3.06-1.93,5.36-1.19c1.74,0.56,2.62,2,2.81,2.34c1.42,2.5,0.15,5.29-0.21,6.08c-1.16,2.55-3.3,3.74-4.08,4.13
		c5.19,0.48,10.07-2.43,12-7.08c2.1-5.08-0.07-10.39-3.38-13.34c-5.32-4.73-12.44-2.32-13.55-1.92c-3.5,1.27-5.51,3.58-7,5.3
		c-5.3,6.13-5.59,13.21-5.62,14.61c-0.04,1.87,0.16,3.52,0.5,5.05c-0.71-1.05-1.45-2.31-2.1-3.78c-1-2.26-2.74-6.17-1.95-11.1
		c0.27-1.67,1.11-6.95,5.62-9.73c1.94-1.2,3.88-1.51,5.07-1.6c-0.41-0.71-1.4-2.16-3.22-3c-3.15-1.45-6.27,0.09-7.11,0.51
		c-3.02,1.49-4.37,4.15-5.01,5.46c-3.65,7.43,0.32,15.54,0.73,16.36c2.37,4.66,6.03,7.28,8.4,8.62c0.36,1.24,0.79,2.45,1.23,3.68
		c0.47,1.3,2.25,6.1,6.38,11.55c5.36,7.07,11.5,11.23,15.49,13.51v-4.13C76.34,89.81,67.88,83.53,64.29,74.7z"/>
	<path class="st0" d="M90.72,78.65c2.66-1.69,3.19-1.72,6.35-3.7c3.27-2.05,6.62-3.83,9.16-7.22c2.36-3.15,3.01-6.13,3.16-6.76
		c1.14-4.92,0.47-11.7-3.25-14.42c-2.15-1.57-4.75-2.01-4.75-2.01c-0.22-0.04-0.97-0.16-1.95-0.16c-3,0-5.21,1.09-6.19,1.59
		c-2.59,1.32-4.22,3.1-5.08,4.22c0.6-0.19,4.84-1.47,8.29,1.02c2.1,1.51,2.83,3.64,3.16,4.66c1.82,5.54-1.51,10.89-2.4,12.3
		c-1.17,1.87-2.38,3.08-4.62,5.31c-2.79,2.77-4.18,3.49-6.29,5.93c-1.76,2.04-2.88,3.97-3.54,5.23
		C84.47,83.14,87.14,80.92,90.72,78.65z"/>
	<path class="st0" d="M110.48,70.81c-0.78,0.53-1.73,1.19-2.68,2.33c-0.66,0.8-1.08,1.53-1.32,1.98c-0.31,0.56-0.39,0.78-1.33,2.93
		c-0.74,1.7-0.83,1.86-1,2.13c-0.18,0.27-0.78,1.15-1.87,1.97c-0.97,0.73-1.87,1.08-2.28,1.22c-0.85,0.29-2.4,0.82-2.89,0.25
		c-0.49-0.57,0.33-1.99,0.93-3.04c0.61-1.07,1.62-2.52,3.27-4.01c-3.03,1.14-7.98,3.43-12.81,7.97c-4.58,4.31-7.13,8.84-8.47,11.72
		c2.84-2.01,5.35-3,7.12-3.54c3.08-0.93,6.71-1.33,10.13-2.5c0.52-0.18,2.3-0.86,4.1-2.17c0.27-0.19,0.52-0.41,0.8-0.67
		c1.08-1.01,1.7-1.98,2.29-2.9c1.24-1.96,1.39-2.95,2.3-4.98c1.34-2.97,2.9-5,3.86-6.24c0.96-1.25,2.38-2.91,4.35-4.67
		C112.96,69.27,111.46,70.14,110.48,70.81z"/>
</g>
<g id="cruz">
	<path class="st1" d="M147.83,139.93c-6.86-3.33-12.3-5.11-17.51-6.6c-6.6-1.89-13.08-3.75-22.21-5.02
		c-6.08-0.85-11.31-1.15-15.29-1.24l-1.9-30.98l-12.11,4.72l-9.39-5.76c-0.68,10.78-1.65,21.56-2.33,32.34
		c-12.09,0.85-27.53,3.24-44.5,9.36c-8.59,3.1-16.12,6.63-22.59,10.15c1.63,0.06,3.84,0.31,6.32,1.12c4.67,1.51,7.61,4.1,8.58,5.01
		c1.89,1.77,3.17,3.59,4.02,5.04c2.3-2.02,5.61-4.7,9.86-7.43c3.7-2.38,10.65-6.41,22.4-10.05c15.07-4.67,27.63-5.46,35.41-5.9
		c21.13-1.2,37.26,1.69,43.04,2.84c12.13,2.41,22.07,5.81,29.35,8.73C156.26,144.46,152.5,142.19,147.83,139.93"/>
	<path class="st1" d="M73.96,32.07c-0.05,0.81-0.12,1.64-0.19,2.45c1.61,0.11,3.91,0.59,6.89,2.13c3.52,1.84,5.84,4.37,6.81,5.75
		l-0.17-2.59l-1.09-15.73h24.89l-2.61-10.08H85.71L84.82,0h-8.56l-1,14.01H52.24l-2.63,10.08l24.92-0.03
		C74.3,26.75,74.15,29.41,73.96,32.07"/>
	<path class="st1" d="M80.38,65.6c-4.15,2.17-9.02,2.52-9.02,2.52l-0.66,9.15l6.01,5.59c0,0,2.07-3,5.26-6.19
		c3.19-3.19,7.32-5.49,7.32-5.49l-0.75-12.03C88.54,59.16,84.53,63.43,80.38,65.6"/>
</g>
</svg>
