<?xml version="1.0" encoding="utf-8"?>
<!-- Generator: Adobe Illustrator 25.2.1, SVG Export Plug-In . SVG Version: 6.00 Build 0)  -->
<svg version="1.1" xmlns="http://www.w3.org/2000/svg" xmlns:xlink="http://www.w3.org/1999/xlink" x="0px" y="0px"
	 viewBox="0 0 119.25 118.56" style="enable-background:new 0 0 119.25 118.56;" xml:space="preserve">
<style type="text/css">
	.st0{fill:#9A1C12;}
	.st1{fill:#281573;}
	.st2{fill:none;stroke:#000000;stroke-width:0.25;stroke-miterlimit:10;}
</style>
<g id="Coraçao">
	<g>
		<path class="st0" d="M48.22,56.03c-1.4-3.45-1.69-6.96-1.69-6.96c-0.11-1.29-0.21-2.58,0.1-4.24c0.22-1.19,0.91-4.95,3.99-6.89
			c0.69-0.44,2.29-1.45,4.02-0.89c1.31,0.42,1.96,1.5,2.11,1.76c1.07,1.87,0.11,3.97-0.16,4.56c-0.87,1.91-2.48,2.8-3.06,3.1
			c3.89,0.36,7.55-1.82,9-5.31c1.58-3.81-0.05-7.79-2.54-10.01c-3.99-3.55-9.33-1.74-10.16-1.44c-2.63,0.95-4.14,2.69-5.25,3.98
			c-3.97,4.6-4.19,9.91-4.21,10.96c-0.03,1.41,0.12,2.64,0.38,3.79c-0.54-0.79-1.09-1.74-1.57-2.83c-0.75-1.7-2.05-4.63-1.46-8.33
			c0.2-1.25,0.83-5.22,4.21-7.3c1.46-0.9,2.91-1.13,3.81-1.2c-0.31-0.53-1.05-1.62-2.42-2.25c-2.36-1.09-4.7,0.07-5.34,0.38
			c-2.26,1.12-3.28,3.11-3.76,4.09c-2.74,5.57,0.24,11.66,0.55,12.27c1.78,3.5,4.52,5.46,6.3,6.47c0.27,0.93,0.59,1.83,0.93,2.76
			c0.35,0.98,1.69,4.58,4.79,8.66c4.02,5.3,8.62,8.43,11.62,10.13v-3.1C57.26,67.37,50.92,62.66,48.22,56.03z"/>
		<path class="st0" d="M68.05,59c2-1.26,2.39-1.29,4.76-2.78c2.45-1.53,4.96-2.87,6.87-5.41c1.77-2.36,2.26-4.6,2.37-5.07
			c0.85-3.69,0.36-8.78-2.44-10.82c-1.61-1.18-3.56-1.51-3.56-1.51c-0.17-0.03-0.72-0.12-1.46-0.12c-2.25,0-3.91,0.82-4.64,1.19
			c-1.94,0.99-3.16,2.33-3.81,3.16c0.45-0.14,3.63-1.1,6.22,0.76c1.57,1.13,2.12,2.73,2.37,3.5c1.36,4.15-1.14,8.17-1.8,9.23
			c-0.88,1.4-1.78,2.31-3.47,3.98c-2.09,2.08-3.13,2.62-4.72,4.45c-1.32,1.53-2.16,2.98-2.66,3.93C63.36,62.37,65.36,60.7,68.05,59z
			"/>
		<path class="st0" d="M82.88,53.12c-0.59,0.4-1.3,0.89-2.01,1.75c-0.5,0.6-0.81,1.15-0.99,1.48c-0.24,0.42-0.29,0.59-1,2.2
			c-0.56,1.28-0.62,1.4-0.75,1.6c-0.13,0.2-0.58,0.86-1.4,1.48c-0.73,0.55-1.4,0.81-1.71,0.92c-0.64,0.22-1.8,0.62-2.16,0.19
			c-0.36-0.43,0.25-1.49,0.7-2.28c0.46-0.8,1.22-1.89,2.45-3.01c-2.27,0.85-5.99,2.57-9.61,5.98c-3.44,3.24-5.34,6.63-6.35,8.79
			c2.13-1.5,4.01-2.25,5.34-2.65c2.31-0.7,5.03-1,7.6-1.88c0.39-0.13,1.73-0.65,3.07-1.63c0.2-0.15,0.39-0.31,0.6-0.5
			c0.81-0.76,1.28-1.49,1.72-2.18c0.93-1.47,1.04-2.21,1.73-3.73c1-2.23,2.18-3.75,2.9-4.68c0.72-0.94,1.79-2.18,3.26-3.5
			C84.74,51.96,83.61,52.62,82.88,53.12z"/>
	</g>
</g>
<g id="Cruz">
	<g>
		<path class="st1" d="M110.89,104.96c-5.14-2.5-9.22-3.83-13.14-4.95c-4.95-1.42-9.81-2.81-16.66-3.77
			c-4.56-0.64-8.49-0.86-11.47-0.93L68.2,72.07l-9.08,3.54l-7.05-4.32c-0.51,8.09-1.24,16.17-1.75,24.26
			c-9.07,0.63-20.65,2.43-33.38,7.02c-6.44,2.32-12.09,4.97-16.95,7.61c1.23,0.05,2.88,0.24,4.74,0.84c3.5,1.13,5.71,3.08,6.44,3.76
			c1.42,1.33,2.38,2.69,3.02,3.78c1.73-1.52,4.21-3.53,7.4-5.58c2.78-1.78,7.99-4.81,16.8-7.54c11.3-3.5,20.72-4.09,26.56-4.42
			c15.85-0.9,27.95,1.27,32.28,2.13c9.1,1.81,16.56,4.36,22.01,6.55C117.22,108.37,114.4,106.67,110.89,104.96z"/>
		<path class="st1" d="M55.48,24.06c-0.04,0.61-0.09,1.23-0.14,1.84c1.21,0.08,2.93,0.44,5.17,1.6c2.64,1.38,4.38,3.28,5.11,4.31
			l-0.13-1.94l-0.82-11.8h18.67l-1.96-7.56H64.29L63.62,0H57.2l-0.75,10.51H39.18l-1.97,7.56l18.69-0.02
			C55.73,20.07,55.62,22.06,55.48,24.06z"/>
		<path class="st1" d="M60.3,49.21c-3.11,1.63-6.76,1.89-6.76,1.89l-0.5,6.87l4.51,4.19c0,0,1.56-2.25,3.95-4.64
			s5.49-4.12,5.49-4.12l-0.56-9.02C66.42,44.38,63.41,47.58,60.3,49.21z"/>
	</g>
	<path class="st2" d="M63.62,0"/>
</g>
</svg>
