<?xml version="1.0" encoding="utf-8"?>
<!-- Generator: Adobe Illustrator 25.2.1, SVG Export Plug-In . SVG Version: 6.00 Build 0)  -->
<svg version="1.1" id="camada" xmlns="http://www.w3.org/2000/svg" xmlns:xlink="http://www.w3.org/1999/xlink" x="0px" y="0px"
	 viewBox="0 0 210.89 100.58" style="enable-background:new 0 0 210.89 100.58;" xml:space="preserve">
<style type="text/css">
	.st0{fill:#9A1C12;}
	.st1{fill:#281573;}
</style>
<g id="sao_cristovao">
	<path class="st0" d="M116.44,95.44c-0.61-0.62-1.34-0.93-2.19-0.93c-0.87,0-1.6,0.31-2.2,0.92c-0.6,0.61-0.9,1.34-0.9,2.17
		c0,0.89,0.3,1.64,0.89,2.24c0.59,0.6,1.33,0.9,2.21,0.9c1.15,0,2.07-0.44,2.75-1.32l-0.91-0.69c-0.48,0.59-1.07,0.88-1.78,0.88
		c-0.46,0-0.88-0.14-1.27-0.42c-0.39-0.28-0.64-0.72-0.75-1.33h5.05C117.34,96.87,117.04,96.06,116.44,95.44z M112.41,96.87
		c0.37-0.81,0.98-1.22,1.84-1.22c0.78,0,1.38,0.41,1.78,1.22H112.41z"/>
	<path class="st0" d="M125.11,94.51c-0.38,0-0.72,0.1-1.01,0.29s-0.59,0.51-0.9,0.94c-0.18-0.43-0.39-0.74-0.65-0.94
		s-0.61-0.29-1.06-0.29c-0.35,0-0.65,0.09-0.92,0.26c-0.27,0.17-0.54,0.44-0.84,0.82v-0.91h-1.23v5.91h1.23v-3.33
		c0-0.46,0.13-0.85,0.4-1.17c0.26-0.32,0.58-0.47,0.96-0.47c0.64,0,0.95,0.39,0.95,1.16v3.81h1.25v-3.21c0-0.49,0.13-0.9,0.38-1.24
		c0.26-0.33,0.57-0.5,0.94-0.5c0.65,0,0.97,0.33,0.97,0.98v3.97h1.25v-4.3c0-0.48-0.17-0.9-0.51-1.25
		C125.98,94.68,125.58,94.51,125.11,94.51z"/>
	<path class="st0" d="M137.46,96.39c-0.21-0.26-0.48-0.5-0.81-0.72c-0.33-0.22-0.79-0.45-1.37-0.7c-0.59-0.25-1-0.48-1.25-0.7
		c-0.24-0.21-0.36-0.46-0.36-0.73c0-0.32,0.14-0.58,0.42-0.78c0.28-0.2,0.64-0.3,1.09-0.3c0.41,0,0.73,0.07,0.94,0.2
		c0.22,0.14,0.46,0.34,0.73,0.62l1.01-0.81c-0.34-0.44-0.77-0.77-1.28-0.98c-0.51-0.21-1.02-0.32-1.52-0.32
		c-0.75,0-1.39,0.23-1.92,0.69c-0.53,0.46-0.79,1.02-0.79,1.67c0,0.27,0.05,0.53,0.14,0.77c0.09,0.24,0.24,0.48,0.44,0.72
		c0.2,0.24,0.44,0.45,0.72,0.62c0.28,0.17,0.67,0.37,1.18,0.57c0.51,0.21,0.89,0.4,1.12,0.56c0.24,0.16,0.43,0.37,0.59,0.62
		c0.16,0.25,0.24,0.5,0.24,0.75c0,0.41-0.15,0.76-0.45,1.03c-0.3,0.27-0.68,0.41-1.13,0.41c-0.94,0-1.63-0.51-2.09-1.54l-1.25,0.35
		c0.32,0.84,0.77,1.46,1.35,1.88c0.59,0.42,1.26,0.63,2.03,0.63c0.79,0,1.45-0.27,2.01-0.8c0.55-0.53,0.83-1.18,0.83-1.94
		c0-0.32-0.05-0.63-0.15-0.92C137.82,96.93,137.67,96.65,137.46,96.39z"/>
	<path class="st0" d="M144.33,95.87c-0.23-0.41-0.55-0.73-0.97-0.99c-0.42-0.25-0.86-0.38-1.32-0.38c-0.75,0-1.41,0.31-1.96,0.93
		c-0.56,0.62-0.84,1.34-0.84,2.17c0,0.87,0.28,1.62,0.83,2.23c0.55,0.61,1.22,0.92,2,0.92c0.9,0,1.65-0.45,2.26-1.34v1.17h1.25
		v-5.91h-1.25V95.87z M143.92,99.03c-0.39,0.39-0.85,0.58-1.39,0.58c-0.55,0-1.01-0.2-1.4-0.59s-0.58-0.87-0.58-1.42
		c0-0.52,0.2-0.96,0.59-1.35c0.39-0.38,0.85-0.57,1.38-0.57c0.54,0,1.01,0.19,1.39,0.58s0.58,0.85,0.58,1.39
		C144.5,98.18,144.31,98.64,143.92,99.03z"/>
	<path class="st0" d="M141.11,93.35c0-0.18,0.05-0.33,0.15-0.44c0.1-0.11,0.23-0.17,0.4-0.17c0.17,0,0.45,0.11,0.84,0.32
		c0.39,0.22,0.75,0.34,1.07,0.34c0.42,0,0.76-0.14,1-0.42c0.25-0.28,0.38-0.68,0.4-1.21h-0.94c-0.03,0.21-0.08,0.37-0.15,0.47
		c-0.07,0.1-0.2,0.15-0.36,0.15c-0.15,0-0.45-0.1-0.89-0.3s-0.77-0.3-0.99-0.3c-0.43,0-0.78,0.15-1.06,0.44
		c-0.28,0.29-0.42,0.66-0.42,1.1v0.09h0.96V93.35z"/>
	<path class="st0" d="M150.12,94.51c-0.83,0-1.56,0.31-2.2,0.94c-0.64,0.63-0.96,1.35-0.96,2.15c0,0.84,0.32,1.58,0.97,2.21
		c0.64,0.62,1.4,0.94,2.28,0.94c0.82,0,1.54-0.32,2.17-0.95s0.94-1.36,0.94-2.19c0-0.83-0.32-1.55-0.95-2.17
		C151.72,94.81,150.97,94.51,150.12,94.51z M151.52,98.94c-0.39,0.38-0.84,0.57-1.36,0.57c-0.53,0-0.99-0.19-1.39-0.56
		c-0.4-0.37-0.59-0.81-0.59-1.31c0-0.52,0.2-0.97,0.59-1.35c0.39-0.38,0.86-0.56,1.4-0.56c0.53,0,0.98,0.19,1.36,0.56
		c0.38,0.37,0.57,0.81,0.57,1.31C152.1,98.11,151.91,98.55,151.52,98.94z"/>
	<path class="st0" d="M159.54,92.59c-0.99,0.94-1.48,2.08-1.48,3.4c0,1.35,0.5,2.5,1.51,3.46c1,0.96,2.22,1.43,3.63,1.43
		c0.97,0,1.86-0.22,2.69-0.66V98.8c-0.91,0.51-1.77,0.77-2.58,0.77c-1.12,0-2.05-0.34-2.8-1.02c-0.74-0.68-1.12-1.53-1.12-2.54
		c0-1,0.36-1.84,1.09-2.52c0.73-0.68,1.62-1.03,2.69-1.03c0.83,0,1.74,0.24,2.72,0.72v-1.41c-0.96-0.4-1.88-0.6-2.78-0.6
		C161.72,91.17,160.53,91.64,159.54,92.59z"/>
	<path class="st0" d="M169.31,94.83c-0.27,0.22-0.54,0.57-0.82,1.06v-1.22h-1.22v5.91h1.25v-3.27c0-0.44,0.14-0.81,0.43-1.1
		c0.28-0.29,0.64-0.44,1.06-0.44c0.08,0,0.23,0.02,0.47,0.07l0.38-1.25c-0.22-0.06-0.4-0.09-0.52-0.09
		C169.92,94.51,169.57,94.61,169.31,94.83z"/>
	<rect x="171.95" y="94.67" class="st0" width="1.24" height="5.91"/>
	<path class="st0" d="M172.57,91.78c-0.26,0-0.49,0.09-0.68,0.28c-0.19,0.19-0.29,0.41-0.29,0.67c0,0.26,0.09,0.49,0.29,0.67
		c0.19,0.19,0.42,0.28,0.68,0.28c0.26,0,0.48-0.09,0.67-0.28c0.19-0.19,0.28-0.41,0.28-0.67c0-0.26-0.09-0.48-0.28-0.67
		C173.05,91.87,172.83,91.78,172.57,91.78z"/>
	<path class="st0" d="M176.72,96.97c-0.64-0.25-0.97-0.51-0.97-0.78c0-0.37,0.25-0.56,0.76-0.56c0.21,0,0.4,0.04,0.56,0.12
		c0.16,0.08,0.34,0.19,0.56,0.35l0.83-0.73c-0.69-0.58-1.32-0.87-1.88-0.87c-0.56,0-1.03,0.16-1.4,0.49s-0.56,0.74-0.56,1.23
		c0,0.4,0.13,0.73,0.39,1c0.26,0.27,0.73,0.54,1.41,0.8c0.68,0.26,1.02,0.56,1.02,0.89c0,0.19-0.1,0.35-0.29,0.49
		c-0.19,0.14-0.42,0.21-0.68,0.21c-0.37,0-0.73-0.17-1.08-0.5l-0.98,0.47c0.54,0.77,1.22,1.16,2.06,1.16c0.55,0,1.03-0.18,1.44-0.55
		c0.41-0.37,0.61-0.8,0.61-1.3c0-0.42-0.14-0.79-0.42-1.09C177.83,97.5,177.37,97.23,176.72,96.97z"/>
	<polygon class="st0" points="181.28,92.95 180.03,92.95 180.03,94.66 179.05,94.66 179.05,95.81 180.03,95.81 180.03,100.58 
		181.28,100.58 181.28,95.81 182.52,95.81 182.52,94.67 181.28,94.67 	"/>
	<polygon class="st0" points="188.1,91.59 186.4,91.59 185.45,93.58 186.51,93.58 	"/>
	<path class="st0" d="M186.28,94.51c-0.83,0-1.56,0.31-2.2,0.94c-0.64,0.63-0.96,1.35-0.96,2.15c0,0.84,0.32,1.58,0.97,2.21
		c0.64,0.62,1.4,0.94,2.28,0.94c0.82,0,1.54-0.32,2.17-0.95s0.94-1.36,0.94-2.19c0-0.83-0.32-1.55-0.95-2.17
		C187.88,94.81,187.13,94.51,186.28,94.51z M187.68,98.94c-0.39,0.38-0.84,0.57-1.36,0.57c-0.53,0-0.99-0.19-1.39-0.56
		s-0.59-0.81-0.59-1.31c0-0.52,0.2-0.97,0.59-1.35c0.39-0.38,0.85-0.56,1.4-0.56c0.53,0,0.98,0.19,1.36,0.56
		c0.38,0.37,0.57,0.81,0.57,1.31C188.26,98.11,188.07,98.55,187.68,98.94z"/>
	<polygon class="st0" points="193.04,98.09 191.34,94.67 190.03,94.67 193.02,100.8 196,94.67 194.68,94.67 	"/>
	<path class="st0" d="M201.91,95.87c-0.23-0.41-0.55-0.73-0.97-0.99c-0.42-0.25-0.86-0.38-1.32-0.38c-0.75,0-1.41,0.31-1.96,0.93
		c-0.56,0.62-0.84,1.34-0.84,2.17c0,0.87,0.28,1.62,0.83,2.23c0.55,0.61,1.22,0.92,2,0.92c0.9,0,1.65-0.45,2.26-1.34v1.17h1.25
		v-5.91h-1.25V95.87z M201.5,99.03c-0.39,0.39-0.85,0.58-1.39,0.58c-0.55,0-1.01-0.2-1.4-0.59s-0.58-0.87-0.58-1.42
		c0-0.52,0.2-0.96,0.59-1.35c0.39-0.38,0.85-0.57,1.38-0.57c0.54,0,1.01,0.19,1.39,0.58c0.39,0.38,0.58,0.85,0.58,1.39
		C202.08,98.18,201.89,98.64,201.5,99.03z"/>
	<path class="st0" d="M198.7,93.35c0-0.18,0.05-0.33,0.15-0.44c0.1-0.11,0.23-0.17,0.4-0.17c0.17,0,0.45,0.11,0.84,0.32
		c0.39,0.22,0.75,0.34,1.07,0.34c0.42,0,0.76-0.14,1-0.42c0.25-0.28,0.38-0.68,0.4-1.21h-0.94c-0.03,0.21-0.08,0.37-0.15,0.47
		c-0.07,0.1-0.2,0.15-0.36,0.15c-0.15,0-0.45-0.1-0.89-0.3s-0.77-0.3-0.99-0.3c-0.43,0-0.78,0.15-1.06,0.44
		c-0.28,0.29-0.42,0.66-0.42,1.1v0.09h0.96V93.35z"/>
	<path class="st0" d="M209.94,95.43c-0.64-0.62-1.38-0.93-2.23-0.93c-0.83,0-1.56,0.31-2.2,0.94c-0.64,0.63-0.96,1.35-0.96,2.15
		c0,0.84,0.32,1.58,0.97,2.21c0.64,0.62,1.4,0.94,2.28,0.94c0.82,0,1.54-0.32,2.17-0.95s0.94-1.36,0.94-2.19
		C210.89,96.77,210.57,96.05,209.94,95.43z M209.1,98.94c-0.39,0.38-0.84,0.57-1.36,0.57c-0.53,0-0.99-0.19-1.39-0.56
		s-0.59-0.81-0.59-1.31c0-0.52,0.2-0.97,0.59-1.35c0.39-0.38,0.85-0.56,1.4-0.56c0.53,0,0.98,0.19,1.36,0.56
		c0.38,0.37,0.57,0.81,0.57,1.31C209.69,98.11,209.49,98.55,209.1,98.94z"/>
</g>
<path id="y" class="st0" d="M97.97,97.86c-0.28-1.02-0.66-3.03,0.08-5.25c1.35-4.04,5.5-5.98,8.56-6.37c0.92-0.12,3.49-0.4,6,1.08
	c0.99,0.59,1.68,1.27,2.12,1.78c-1.11-0.15-2.73-0.26-4.65,0c-1.7,0.23-5.84,0.84-9.14,4.19C100.1,94.13,98.87,95.6,97.97,97.86z"/>
<g id="wesleyana">
	<g>
		<path class="st1" d="M91.14,66.75H80.48c0,2.16,0.36,3.8,1.08,4.92c0.84,1.34,2.21,2.01,4.1,2.01c0.77,0,1.53-0.15,2.27-0.45
			c0.75-0.3,1.44-0.71,2.09-1.23l0.45,0.34l-0.82,2.09c-1.59,1.12-3.37,1.68-5.33,1.68c-3.06,0-5.38-0.86-6.97-2.57
			c-1.59-1.71-2.38-4.12-2.38-7.23c0-2.66,0.76-4.81,2.29-6.46c1.53-1.65,3.61-2.48,6.24-2.48c2.76,0,4.76,0.89,6,2.68
			C90.59,61.61,91.14,63.84,91.14,66.75z M80.48,64.96h5.51c0-1.54-0.12-2.77-0.37-3.69c-0.4-1.49-1.09-2.24-2.09-2.24
			c-1.19,0-2.04,0.73-2.53,2.2C80.65,62.25,80.48,63.5,80.48,64.96z"/>
		<path class="st1" d="M93.59,71.03h0.93c0.35,0.97,0.89,1.74,1.64,2.31s1.61,0.86,2.61,0.86c0.69,0,1.35-0.22,1.96-0.65
			c0.61-0.43,0.91-0.97,0.91-1.62c0-0.92-0.73-1.7-2.2-2.35c-2.46-1.09-3.84-1.74-4.14-1.94c-1.52-1.07-2.27-2.52-2.27-4.36
			s0.62-3.29,1.86-4.34c1.24-1.06,2.76-1.58,4.55-1.58c0.94,0,1.9,0.16,2.87,0.47c0.97,0.31,1.81,0.74,2.53,1.29l-0.89,3.28h-1.04
			c-0.15-0.84-0.56-1.58-1.25-2.2s-1.45-0.93-2.29-0.93c-0.75,0-1.39,0.18-1.94,0.54c-0.55,0.36-0.82,0.9-0.82,1.62
			c0,0.92,0.76,1.69,2.27,2.31c2.41,0.97,3.81,1.59,4.21,1.86c1.52,1.04,2.27,2.56,2.27,4.55c0,1.76-0.64,3.2-1.92,4.3
			c-1.28,1.11-3.04,1.66-5.27,1.66c-1.94,0-3.65-0.51-5.14-1.53L93.59,71.03z"/>
		<path class="st1" d="M113.71,47.45v28.32c-0.42-0.05-0.73-0.08-0.93-0.08c-0.87-0.07-1.42-0.11-1.64-0.11
			c-0.55,0-1.04,0.02-1.49,0.07s-0.81,0.09-1.08,0.11V47.45c0.42,0.05,0.9,0.09,1.43,0.13c0.53,0.04,0.91,0.06,1.14,0.06
			c0.55,0,1.04-0.02,1.49-0.07C113.08,47.51,113.44,47.47,113.71,47.45z"/>
		<path class="st1" d="M133.39,66.75h-10.66c0,2.16,0.36,3.8,1.08,4.92c0.84,1.34,2.21,2.01,4.1,2.01c0.77,0,1.53-0.15,2.27-0.45
			c0.75-0.3,1.44-0.71,2.09-1.23l0.45,0.34l-0.82,2.09c-1.59,1.12-3.37,1.68-5.33,1.68c-3.06,0-5.38-0.86-6.97-2.57
			c-1.59-1.71-2.38-4.12-2.38-7.23c0-2.66,0.76-4.81,2.29-6.46c1.53-1.65,3.61-2.48,6.24-2.48c2.76,0,4.76,0.89,6,2.68
			C132.84,61.61,133.39,63.84,133.39,66.75z M122.73,64.96h5.51c0-1.54-0.12-2.77-0.37-3.69c-0.4-1.49-1.09-2.24-2.09-2.24
			c-1.19,0-2.04,0.73-2.53,2.2C122.9,62.25,122.73,63.5,122.73,64.96z"/>
	</g>
	<g>
		<polygon class="st1" points="53.52,48.84 60.85,48.84 60.85,69.33 71.17,48.84 78.17,48.84 62.15,80.67 54.98,80.67 54.98,60.42 
			44.49,80.67 37.15,80.67 37.15,48.84 43.19,48.84 43.19,69.33 		"/>
	</g>
	<g>
		<path class="st1" d="M166.05,62.35v10.13c0,0.7,0.13,1.16,0.39,1.4c0.26,0.24,0.76,0.35,1.51,0.35v0.86
			c-0.47,0.22-1.04,0.45-1.7,0.67s-1.21,0.33-1.66,0.33c-0.84,0-1.6-0.24-2.25-0.73s-1.14-1.15-1.43-1.99
			c-0.5,0.87-1.17,1.54-2.01,2.01c-0.84,0.47-1.76,0.71-2.76,0.71c-1.59,0-2.86-0.41-3.8-1.23c-1.02-0.89-1.53-2.12-1.53-3.69
			c0-1.69,0.55-2.94,1.64-3.76c0.89-0.67,2.62-1.32,5.18-1.94c0.57-0.15,1.03-0.27,1.38-0.37c0.55-0.17,0.99-0.37,1.34-0.6
			c0.2-0.2,0.34-0.41,0.43-0.63c0.09-0.22,0.13-0.5,0.13-0.82c0-0.87-0.37-1.63-1.1-2.29c-0.73-0.66-1.55-0.99-2.44-0.99
			c-1.07,0-2.1,0.3-3.09,0.89c-0.82,0.5-1.3,0.97-1.45,1.42h-0.26l-0.48-2.31c0.84-0.77,1.89-1.37,3.15-1.79
			c1.25-0.42,2.5-0.63,3.74-0.63c1.86,0,3.43,0.36,4.69,1.08C165.25,59.33,166.05,60.64,166.05,62.35z M160.9,69.62V66
			c-0.75,0.27-1.34,0.48-1.79,0.63c-0.82,0.3-1.45,0.63-1.9,0.99c-0.45,0.36-0.76,0.79-0.93,1.29s-0.26,1.09-0.26,1.79
			c0,0.84,0.16,1.55,0.47,2.12s0.84,0.86,1.58,0.86c1.04,0,1.8-0.43,2.27-1.3C160.72,71.68,160.9,70.76,160.9,69.62z"/>
		<path class="st1" d="M170.18,75.77V57.7c0.4,0.05,0.85,0.09,1.36,0.13c0.51,0.04,0.89,0.06,1.14,0.06c0.55,0,1.02-0.02,1.43-0.07
			c0.41-0.05,0.75-0.09,1.02-0.11v2.76c0.82-0.94,1.66-1.68,2.53-2.2c1.02-0.6,2.09-0.89,3.2-0.89c2.21,0,3.78,0.68,4.7,2.05
			c0.79,1.17,1.19,2.98,1.19,5.44v10.92c-0.42-0.05-0.73-0.08-0.93-0.08c-0.87-0.07-1.42-0.11-1.64-0.11
			c-0.55,0-1.04,0.02-1.49,0.07s-0.81,0.09-1.08,0.11v-9.28c0-2.01-0.17-3.44-0.52-4.29c-0.47-1.14-1.32-1.71-2.53-1.71
			c-1.42,0-2.36,0.82-2.83,2.46c-0.27,0.94-0.41,2.36-0.41,4.25v8.57c-0.42-0.05-0.73-0.08-0.93-0.08
			c-0.87-0.07-1.42-0.11-1.64-0.11c-0.55,0-1.04,0.02-1.49,0.07S170.45,75.74,170.18,75.77z"/>
		<path class="st1" d="M204.57,62.35v10.13c0,0.7,0.13,1.16,0.39,1.4c0.26,0.24,0.76,0.35,1.51,0.35v0.86
			c-0.47,0.22-1.04,0.45-1.7,0.67s-1.21,0.33-1.66,0.33c-0.84,0-1.6-0.24-2.25-0.73s-1.14-1.15-1.43-1.99
			c-0.5,0.87-1.17,1.54-2.01,2.01c-0.84,0.47-1.76,0.71-2.76,0.71c-1.59,0-2.86-0.41-3.8-1.23c-1.02-0.89-1.53-2.12-1.53-3.69
			c0-1.69,0.55-2.94,1.64-3.76c0.89-0.67,2.62-1.32,5.18-1.94c0.57-0.15,1.03-0.27,1.38-0.37c0.55-0.17,0.99-0.37,1.34-0.6
			c0.2-0.2,0.34-0.41,0.43-0.63c0.09-0.22,0.13-0.5,0.13-0.82c0-0.87-0.37-1.63-1.1-2.29c-0.73-0.66-1.55-0.99-2.44-0.99
			c-1.07,0-2.1,0.3-3.09,0.89c-0.82,0.5-1.3,0.97-1.45,1.42h-0.26l-0.48-2.31c0.84-0.77,1.89-1.37,3.15-1.79
			c1.25-0.42,2.5-0.63,3.74-0.63c1.86,0,3.43,0.36,4.69,1.08C203.78,59.33,204.57,60.64,204.57,62.35z M199.43,69.62V66
			c-0.75,0.27-1.34,0.48-1.79,0.63c-0.82,0.3-1.45,0.63-1.9,0.99c-0.45,0.36-0.76,0.79-0.93,1.29s-0.26,1.09-0.26,1.79
			c0,0.84,0.16,1.55,0.47,2.12s0.84,0.86,1.58,0.86c1.04,0,1.8-0.43,2.27-1.3C199.24,71.68,199.43,70.76,199.43,69.62z"/>
	</g>
	<g>
		<path class="st1" d="M148.54,57.1l-4.42,8.38l-4.15-8.38l-6.29,0l7.5,13.95l-3.85,7.29c-0.63,0.79-1.7,1.92-3.34,2.77
			c-2.73,1.41-5.41,1.18-7.21,1c-0.31-0.03-0.55-0.06-0.79-0.11c-1.32-0.24-2.28-0.57-2.53-0.65c-1.72-0.61-5.48-1.5-6.55-1.72
			c-1.27-0.26-5.37-1.1-9.37,0.73c-3.7,1.7-5.57,4.9-6.32,6.43c0.87-0.6,2.31-1.45,4.23-1.86c6.91-1.5,10.64,4.63,19.8,4.57
			c3.9-0.03,6.15-1.16,7.28-1.86c1.45-0.91,2.35-1.9,3.31-2.96c2.44-2.72,3.66-5.32,4.06-6.08c3.85-7.17,7.7-14.33,11.55-21.5
			H148.54z"/>
	</g>
</g>
<g id="linha">
	<rect x="0" y="43.63" class="st0" width="37.53" height="1.95"/>
	<rect x="79.83" y="43.65" class="st0" width="128.06" height="1.95"/>
</g>
<g id="metodista">
	<path class="st1" d="M61.82,31.54H51.16c0,2.16,0.36,3.8,1.08,4.92c0.84,1.34,2.21,2.01,4.1,2.01c0.77,0,1.53-0.15,2.27-0.45
		c0.75-0.3,1.44-0.71,2.09-1.23l0.45,0.33l-0.82,2.09c-1.59,1.12-3.37,1.68-5.33,1.68c-3.06,0-5.38-0.86-6.97-2.57
		c-1.59-1.71-2.38-4.12-2.38-7.23c0-2.66,0.76-4.81,2.29-6.46c1.53-1.65,3.61-2.48,6.24-2.48c2.76,0,4.76,0.89,6,2.68
		C61.27,26.4,61.82,28.64,61.82,31.54z M51.16,29.76h5.51c0-1.54-0.12-2.77-0.37-3.69c-0.4-1.49-1.09-2.24-2.09-2.24
		c-1.19,0-2.04,0.73-2.53,2.2C51.33,27.05,51.16,28.29,51.16,29.76z"/>
	<path class="st1" d="M70.83,24.88v10.62c0,1.22,0.11,2.08,0.32,2.59c0.21,0.51,0.71,0.76,1.51,0.76c0.47,0,1.02-0.09,1.64-0.26
		v1.45c-1.52,0.57-2.81,0.86-3.88,0.86c-1.79,0-3.06-0.57-3.8-1.71c-0.62-0.94-0.93-2.38-0.93-4.32v-9.99h-2.53
		c0.05-0.22,0.07-0.45,0.07-0.67c0-0.22,0-0.4,0-0.52v-0.41c0-0.12,0-0.25,0-0.37c0-0.17,0-0.31,0-0.41h2.46V18.3
		c0.62-0.25,1.43-0.59,2.42-1.04c0.99-0.44,1.9-0.86,2.72-1.26v6.48H74c-0.02,0.22-0.04,0.45-0.06,0.69
		c-0.01,0.24-0.02,0.4-0.02,0.5c0,0.2,0,0.39,0,0.56c0,0.3,0,0.51,0,0.63H70.83z"/>
	<path class="st1" d="M84.84,40.9c-2.76,0-4.96-0.81-6.59-2.42c-1.64-1.61-2.46-3.8-2.46-6.56c0-2.98,0.8-5.35,2.4-7.12
		c1.6-1.76,3.83-2.65,6.69-2.65c2.83,0,5.07,0.79,6.71,2.38c1.64,1.59,2.46,3.78,2.46,6.56c0,2.91-0.8,5.24-2.38,7
		C89.97,39.97,87.7,40.9,84.84,40.9z M85.1,23.83c-1.39,0-2.4,0.77-3.02,2.31c-0.52,1.32-0.78,3.2-0.78,5.66
		c0,1.94,0.17,3.46,0.52,4.58c0.57,1.89,1.58,2.83,3.02,2.83c1.32,0,2.29-0.93,2.91-2.79c0.52-1.54,0.78-3.51,0.78-5.92
		c0-2.01-0.25-3.58-0.75-4.69C87.19,24.49,86.3,23.83,85.1,23.83z"/>
	<path class="st1" d="M113.42,12.24v28.32c-0.55-0.05-1.02-0.09-1.43-0.13c-0.41-0.04-0.75-0.06-1.02-0.06
		c-0.57,0-1.06,0.02-1.47,0.07c-0.41,0.05-0.75,0.09-1.02,0.11v-3.28c-0.87,2.41-2.57,3.61-5.1,3.61c-2.56,0-4.47-0.96-5.74-2.87
		c-1.07-1.61-1.6-3.78-1.6-6.48c0-2.58,0.58-4.74,1.75-6.48c1.29-1.94,3.1-2.91,5.44-2.91c1.17,0,2.17,0.21,3.02,0.63
		c0.84,0.42,1.53,1.11,2.05,2.05V12.24c0.42,0.05,0.9,0.09,1.43,0.13c0.53,0.04,0.91,0.06,1.14,0.06c0.55,0,1.04-0.02,1.49-0.07
		C112.79,12.31,113.15,12.27,113.42,12.24z M105.13,24.58c-1.4,0-2.4,0.88-3,2.65c-0.4,1.19-0.6,2.67-0.6,4.43
		c0,1.76,0.16,3.17,0.49,4.21c0.55,1.74,1.49,2.61,2.81,2.61c1.42,0,2.43-0.91,3.03-2.72c0.4-1.19,0.6-2.69,0.6-4.51
		c0-1.69-0.18-3.07-0.52-4.14C107.39,25.42,106.45,24.58,105.13,24.58z"/>
	<path class="st1" d="M117.41,15.67c0-0.77,0.29-1.45,0.86-2.05c0.57-0.6,1.25-0.89,2.05-0.89s1.49,0.29,2.09,0.86
		c0.6,0.57,0.89,1.27,0.89,2.09c0,0.8-0.29,1.48-0.88,2.07c-0.58,0.58-1.29,0.88-2.11,0.88s-1.51-0.29-2.07-0.88
		C117.69,17.16,117.41,16.47,117.41,15.67z M117.78,40.56V22.49c0.42,0.05,0.9,0.09,1.43,0.13c0.53,0.04,0.91,0.06,1.14,0.06
		c0.55,0,1.04-0.02,1.49-0.07c0.45-0.05,0.81-0.09,1.08-0.11v18.07c-0.42-0.05-0.73-0.07-0.93-0.07c-0.87-0.07-1.42-0.11-1.64-0.11
		c-0.55,0-1.04,0.02-1.49,0.07C118.41,40.5,118.05,40.54,117.78,40.56z"/>
	<path class="st1" d="M126.83,35.83h0.93c0.35,0.97,0.89,1.74,1.64,2.31s1.61,0.86,2.61,0.86c0.7,0,1.35-0.22,1.96-0.65
		c0.61-0.43,0.91-0.97,0.91-1.62c0-0.92-0.73-1.7-2.2-2.35c-2.46-1.09-3.84-1.74-4.14-1.94c-1.52-1.07-2.27-2.52-2.27-4.36
		c0-1.84,0.62-3.28,1.86-4.34c1.24-1.06,2.76-1.58,4.55-1.58c0.94,0,1.9,0.16,2.87,0.47c0.97,0.31,1.81,0.74,2.53,1.29l-0.89,3.28
		h-1.04c-0.15-0.84-0.57-1.58-1.25-2.2c-0.68-0.62-1.45-0.93-2.29-0.93c-0.75,0-1.39,0.18-1.94,0.54c-0.55,0.36-0.82,0.9-0.82,1.62
		c0,0.92,0.76,1.69,2.27,2.31c2.41,0.97,3.81,1.59,4.21,1.86c1.51,1.04,2.27,2.56,2.27,4.55c0,1.76-0.64,3.2-1.92,4.3
		c-1.28,1.11-3.04,1.66-5.27,1.66c-1.94,0-3.65-0.51-5.14-1.53L126.83,35.83z"/>
	<path class="st1" d="M147.48,24.88v10.62c0,1.22,0.11,2.08,0.32,2.59c0.21,0.51,0.71,0.76,1.51,0.76c0.47,0,1.02-0.09,1.64-0.26
		v1.45c-1.52,0.57-2.81,0.86-3.88,0.86c-1.79,0-3.05-0.57-3.8-1.71c-0.62-0.94-0.93-2.38-0.93-4.32v-9.99h-2.53
		c0.05-0.22,0.08-0.45,0.08-0.67c0-0.22,0-0.4,0-0.52v-0.41c0-0.12,0-0.25,0-0.37c0-0.17,0-0.31,0-0.41h2.46V18.3
		c0.62-0.25,1.43-0.59,2.42-1.04c0.99-0.44,1.9-0.86,2.72-1.26v6.48h3.17c-0.03,0.22-0.04,0.45-0.06,0.69
		c-0.01,0.24-0.02,0.4-0.02,0.5c0,0.2,0,0.39,0,0.56c0,0.3,0,0.51,0,0.63H147.48z"/>
	<path class="st1" d="M167.33,27.15v10.13c0,0.7,0.13,1.16,0.39,1.4c0.26,0.24,0.76,0.35,1.51,0.35v0.86
		c-0.47,0.22-1.04,0.45-1.7,0.67c-0.66,0.22-1.21,0.33-1.66,0.33c-0.84,0-1.6-0.24-2.25-0.73s-1.14-1.15-1.43-1.99
		c-0.5,0.87-1.17,1.54-2.01,2.01c-0.84,0.47-1.76,0.71-2.76,0.71c-1.59,0-2.86-0.41-3.8-1.23c-1.02-0.89-1.53-2.12-1.53-3.69
		c0-1.69,0.55-2.94,1.64-3.76c0.89-0.67,2.62-1.32,5.18-1.94c0.57-0.15,1.03-0.27,1.38-0.37c0.55-0.17,0.99-0.37,1.34-0.6
		c0.2-0.2,0.34-0.41,0.43-0.63c0.09-0.22,0.13-0.5,0.13-0.82c0-0.87-0.37-1.63-1.1-2.29c-0.73-0.66-1.55-0.99-2.44-0.99
		c-1.07,0-2.1,0.3-3.09,0.89c-0.82,0.5-1.3,0.97-1.45,1.42h-0.26l-0.48-2.31c0.84-0.77,1.89-1.37,3.15-1.79
		c1.25-0.42,2.5-0.63,3.74-0.63c1.86,0,3.43,0.36,4.69,1.08C166.54,24.13,167.33,25.43,167.33,27.15z M162.19,34.41V30.8
		c-0.75,0.27-1.34,0.48-1.79,0.63c-0.82,0.3-1.45,0.63-1.9,0.99c-0.45,0.36-0.76,0.79-0.93,1.29c-0.17,0.5-0.26,1.09-0.26,1.79
		c0,0.84,0.16,1.55,0.47,2.12c0.31,0.57,0.84,0.86,1.58,0.86c1.04,0,1.8-0.43,2.27-1.3C162,36.48,162.19,35.56,162.19,34.41z"/>
	<g>
		<polygon class="st1" points="27.03,40.37 19.7,40.37 19.7,19.88 9.38,40.37 2.38,40.37 18.4,8.54 25.57,8.54 25.57,28.79 
			36.06,8.54 43.4,8.54 43.4,40.37 37.36,40.37 37.36,19.88 		"/>
	</g>
</g>
<g id="igreja">
	<path class="st1" d="M53.25,0.44h1.54v11.41h-1.54V0.44z"/>
	<path class="st1" d="M66.46,2.27l-1,1.14c-1.01-1.14-2.17-1.71-3.49-1.71c-1.16,0-2.12,0.43-2.88,1.29
		c-0.77,0.86-1.15,1.93-1.15,3.22c0,1.13,0.37,2.14,1.12,3.05s1.77,1.36,3.08,1.36c1.96,0,3.2-0.99,3.7-2.96h-2.66V6.08h4.2
		c0,0.78-0.05,1.4-0.14,1.87c-0.09,0.47-0.28,0.98-0.56,1.54c-0.28,0.56-0.66,1.06-1.13,1.51c-0.47,0.44-0.98,0.76-1.52,0.95
		c-0.54,0.19-1.18,0.29-1.93,0.29c-1.7,0-3.06-0.62-4.07-1.86s-1.52-2.65-1.52-4.25c0-1.68,0.52-3.1,1.55-4.28s2.29-1.77,3.77-1.77
		c0.88,0,1.68,0.15,2.4,0.46C64.96,0.85,65.7,1.42,66.46,2.27z"/>
	<path class="st1" d="M69.39,0.44h2.48c1.23,0,2.24,0.31,3.01,0.92s1.16,1.4,1.16,2.35c0,0.76-0.25,1.44-0.75,2.02
		c-0.5,0.58-1.28,1-2.35,1.24l3.32,4.88h-1.79L71.3,7.16h-0.35v4.69h-1.56V0.44z M70.95,1.82v3.98c2.3,0.05,3.46-0.62,3.46-2
		c0-0.48-0.13-0.88-0.4-1.19c-0.27-0.31-0.63-0.52-1.08-0.63C72.48,1.87,71.82,1.82,70.95,1.82z"/>
	<path class="st1" d="M78.01,0.44h6.34V2h-4.8v2.85h4.8v1.54h-4.8v3.92h4.8v1.54h-6.34V0.44z"/>
	<path class="st1" d="M88.66,0.46h1.56v8.36c0,2.27-0.95,3.41-2.85,3.41c-0.66,0-1.31-0.17-1.95-0.51l0.77-1.27
		c0.5,0.17,0.91,0.26,1.23,0.26c0.82,0,1.23-0.55,1.23-1.65V0.46z"/>
	<path class="st1" d="M97.14,0l5.4,11.85h-1.64l-1.33-2.92h-4.85l-1.31,2.92h-1.63L97.14,0z M97.13,3.56L95.3,7.63h3.68L97.13,3.56z
		"/>
</g>
</svg>
