<?xml version="1.0" encoding="utf-8"?>
<!-- Generator: Adobe Illustrator 25.2.1, SVG Export Plug-In . SVG Version: 6.00 Build 0)  -->
<svg version="1.1" id="Coraçao" xmlns="http://www.w3.org/2000/svg" xmlns:xlink="http://www.w3.org/1999/xlink" x="0px" y="0px"
	 viewBox="0 0 119.25 118.56" style="enable-background:new 0 0 119.25 118.56;" xml:space="preserve">
<style type="text/css">
	.st0{fill:#9A1C12;}
</style>
<g>
	<path class="st0" d="M33.99,74.73C30.85,67,30.2,59.14,30.2,59.14c-0.24-2.9-0.47-5.78,0.21-9.51c0.49-2.67,2.04-11.1,8.94-15.45
		c1.55-0.98,5.14-3.24,9.01-2c2.93,0.94,4.4,3.37,4.72,3.93c2.39,4.2,0.25,8.89-0.36,10.23c-1.95,4.28-5.55,6.29-6.87,6.94
		c8.73,0.81,16.93-4.08,20.17-11.91c3.53-8.53-0.11-17.47-5.69-22.42c-8.95-7.95-20.91-3.91-22.78-3.23
		c-5.89,2.13-9.27,6.02-11.77,8.92c-8.9,10.3-9.39,22.21-9.44,24.57c-0.07,3.15,0.28,5.91,0.84,8.5c-1.2-1.77-2.43-3.89-3.52-6.35
		c-1.69-3.8-4.6-10.37-3.27-18.67c0.45-2.8,1.87-11.69,9.44-16.36c3.27-2.02,6.53-2.54,8.53-2.68c-0.69-1.19-2.35-3.63-5.42-5.04
		C17.66,6.15,12.42,8.74,11,9.45c-5.07,2.51-7.34,6.98-8.42,9.17c-6.14,12.49,0.53,26.13,1.23,27.5
		c3.98,7.84,10.13,12.24,14.13,14.49c0.61,2.09,1.33,4.11,2.07,6.18c0.79,2.19,3.78,10.26,10.73,19.42
		c9.02,11.89,19.33,18.89,26.05,22.71v-6.94C54.25,100.14,40.03,89.58,33.99,74.73z"/>
	<path class="st0" d="M78.43,81.39c4.47-2.83,5.36-2.89,10.68-6.22c5.49-3.44,11.13-6.43,15.4-12.13c3.97-5.29,5.06-10.3,5.31-11.36
		c1.91-8.26,0.8-19.68-5.47-24.25c-3.62-2.64-7.98-3.38-7.98-3.38c-0.37-0.06-1.62-0.26-3.28-0.26c-5.04-0.01-8.76,1.83-10.4,2.67
		c-4.35,2.21-7.09,5.22-8.53,7.09c1.01-0.32,8.13-2.47,13.94,1.71c3.53,2.54,4.76,6.12,5.32,7.84c3.06,9.31-2.55,18.3-4.03,20.68
		c-1.96,3.15-4,5.17-7.77,8.93c-4.68,4.66-7.03,5.87-10.57,9.98c-2.97,3.44-4.85,6.67-5.95,8.8C67.92,88.92,72.41,85.2,78.43,81.39z
		"/>
	<path class="st0" d="M111.66,68.19c-1.31,0.89-2.91,1.99-4.5,3.92c-1.11,1.34-1.81,2.58-2.22,3.33c-0.53,0.95-0.65,1.32-2.23,4.92
		c-1.25,2.86-1.39,3.14-1.68,3.58c-0.3,0.45-1.31,1.93-3.14,3.32c-1.63,1.23-3.14,1.82-3.84,2.06c-1.43,0.49-4.04,1.38-4.85,0.42
		c-0.81-0.96,0.56-3.35,1.57-5.11c1.03-1.79,2.73-4.24,5.5-6.75c-5.1,1.91-13.42,5.76-21.53,13.4c-7.7,7.25-11.98,14.86-14.23,19.71
		c4.77-3.37,9-5.04,11.97-5.94c5.18-1.57,11.27-2.24,17.04-4.21c0.87-0.3,3.87-1.45,6.89-3.65c0.45-0.33,0.88-0.69,1.35-1.13
		c1.82-1.7,2.86-3.33,3.84-4.88c2.09-3.29,2.33-4.96,3.87-8.37c2.25-4.99,4.88-8.4,6.49-10.5c1.61-2.1,4-4.9,7.31-7.85
		C115.82,65.6,113.29,67.08,111.66,68.19z"/>
</g>
</svg>
